<?xml version="1.0" encoding="UTF-8" standalone="no"?>
<svg
   xmlns:dc="http://purl.org/dc/elements/1.1/"
   xmlns:cc="http://creativecommons.org/ns#"
   xmlns:rdf="http://www.w3.org/1999/02/22-rdf-syntax-ns#"
   xmlns:svg="http://www.w3.org/2000/svg"
   xmlns="http://www.w3.org/2000/svg"
   viewBox="0 0 149.00937 404.22198"
   height="404.22198"
   width="149.00937"
   xml:space="preserve"
   version="1.1"
   id="svg2"><metadata
     id="metadata8"><rdf:RDF><cc:Work
         rdf:about=""><dc:format>image/svg+xml</dc:format><dc:type
           rdf:resource="http://purl.org/dc/dcmitype/StillImage" /><dc:title></dc:title></cc:Work></rdf:RDF></metadata><defs
     id="defs6" /><g
     transform="matrix(1.25,0,0,-1.25,-525.67462,552.25588)"
     id="g10"><g
       transform="translate(482.4794,194.8921)"
       id="g12"><path
         id="path14"
         style="fill:#164966;fill-opacity:1;fill-rule:nonzero;stroke:none"
         d="M 0,0 -54.736,43.357 43.394,-76.465 0,0 Z" /></g><g
       transform="translate(484.5749,193.6772)"
       id="g16"><path
         id="path18"
         style="fill:#66bbdd;fill-opacity:1;fill-rule:nonzero;stroke:none"
         d="m 0,0 -2,0.811 -8.146,49.412 -53.889,0 L 0,-0.01 0,0 Z" /></g><g
       transform="translate(476.4287,243.8997)"
       id="g20"><path
         id="path22"
         style="fill:#aec2cc;fill-opacity:1;fill-rule:nonzero;stroke:none"
         d="M 0,0 60.785,70.71 -55.889,0 0,0 Z" /></g><g
       transform="translate(525.4102,119.9277)"
       id="g24"><path
         id="path26"
         style="fill:#66bbdd;fill-opacity:1;fill-rule:nonzero;stroke:none"
         d="M 0,0 -3.41,185.297 14.337,320.877 10.436,27.994 0,0 Z" /></g><g
       transform="translate(482.4794,195.8921)"
       id="g28"><path
         id="path30"
         style="fill:#164966;fill-opacity:1;fill-rule:nonzero;stroke:none"
         d="M 0,0 -54.736,43.357 43.394,-76.465 0,0 Z" /></g><g
       transform="translate(484.5749,194.6772)"
       id="g32"><path
         id="path34"
         style="fill:#66bbdd;fill-opacity:1;fill-rule:nonzero;stroke:none"
         d="m 0,0 -2,0.811 -8.146,49.412 -53.889,0 L 0,-0.01 0,0 Z" /></g><g
       transform="translate(476.4287,244.8997)"
       id="g36"><path
         id="path38"
         style="fill:#aec2cc;fill-opacity:1;fill-rule:nonzero;stroke:none"
         d="M 0,0 60.785,70.71 -55.889,0 0,0 Z" /></g><g
       transform="translate(525.4102,120.9277)"
       id="g40"><path
         id="path42"
         style="fill:#66bbdd;fill-opacity:1;fill-rule:nonzero;stroke:none"
         d="M 0,0 -3.41,185.297 14.337,320.877 10.436,27.994 0,0 Z" /></g></g></svg>