<svg id="Livello_1" data-name="Livello 1" xmlns="http://www.w3.org/2000/svg" viewBox="0 0 266.15 95.04">
  <defs>
    <style>
      .cls-1 {
        fill: #0b4e6c;
      }

      .cls-2 {
        fill: #f59e24;
      }
    </style>
  </defs>
  <g>
    <path class="cls-1" d="M462.2,426.45V420a1.85,1.85,0,0,1,1.08-1.68l46.17-21a1.84,1.84,0,0,1,2.6,1.68v6.74a1.82,1.82,0,0,1-1.12,1.69l-35.67,15.09a.76.76,0,0,0,0,1.39L510.93,439a1.85,1.85,0,0,1,1.12,1.7v6.73a1.84,1.84,0,0,1-2.6,1.68l-46.17-21A1.84,1.84,0,0,1,462.2,426.45Z" transform="translate(-462.2 -373.42)"/>
    <path class="cls-1" d="M728.35,426.45V420a1.85,1.85,0,0,0-1.08-1.68l-46.16-21A1.85,1.85,0,0,0,678.5,399v6.74a1.82,1.82,0,0,0,1.12,1.69l35.67,15.09a.76.76,0,0,1,0,1.39L679.62,439a1.85,1.85,0,0,0-1.12,1.7v6.73a1.85,1.85,0,0,0,2.61,1.68l46.16-21A1.84,1.84,0,0,0,728.35,426.45Z" transform="translate(-462.2 -373.42)"/>
    <path class="cls-1" d="M526.6,464.73,565.17,375a2.68,2.68,0,0,1,2.46-1.62h3.84a2.68,2.68,0,0,1,2.46,3.74l-38.67,89.69a2.68,2.68,0,0,1-2.46,1.62h-3.74A2.69,2.69,0,0,1,526.6,464.73Z" transform="translate(-462.2 -373.42)"/>
    <path class="cls-1" d="M576.93,422.5a38.4,38.4,0,0,1,2.28-14.05,19.06,19.06,0,0,1,6.23-8.67,25.45,25.45,0,0,1,8.08-4,32.61,32.61,0,0,1,8.92-1.17,43.67,43.67,0,0,1,11.88,1.65V374.4h10.16v59.47a17.77,17.77,0,0,1-.36,3.56,20.06,20.06,0,0,1-1.68,4.53,15.53,15.53,0,0,1-3.61,4.83,19,19,0,0,1-6.78,3.55,33.24,33.24,0,0,1-10.48,1.5,34.29,34.29,0,0,1-6.17-.55,22.08,22.08,0,0,1-6.48-2.44,20.15,20.15,0,0,1-6-5,25.49,25.49,0,0,1-4.24-8.55A42.82,42.82,0,0,1,576.93,422.5Zm10.16,0a39.49,39.49,0,0,0,1.22,10.67,12.42,12.42,0,0,0,3.5,6.19,13.12,13.12,0,0,0,4.5,2.64,17.48,17.48,0,0,0,5.26.71q12.79,0,12.75-8.27V406a30.86,30.86,0,0,0-11.88-2.32,23,23,0,0,0-5.78.65,13.29,13.29,0,0,0-4.8,2.48,11.44,11.44,0,0,0-3.55,5.76A34.07,34.07,0,0,0,587.09,422.5Z" transform="translate(-462.2 -373.42)"/>
    <path class="cls-2" d="M645.64,451V374.29H655.8V451Z" transform="translate(-462.2 -373.42)"/>
  </g>
</svg>
