<svg xmlns="http://www.w3.org/2000/svg" width="240" height="32.85755" viewBox="0 0 240 32.85755">
  <defs>
    <style>
      .cls-1 {
        fill: #e53a1e;
      }
    </style>
  </defs>
      <g>
        <path class="cls-1" d="M27.19887,19.12729a16.03231,16.03231,0,0,1-.96553,5.68078,11.72714,11.72714,0,0,1-7.04064,7.08487,15.54878,15.54878,0,0,1-5.59327.96461A15.67606,15.67606,0,0,1,7.962,31.89294a11.88875,11.88875,0,0,1-4.27672-2.74182,12.21139,12.21139,0,0,1-2.7197-4.32093A15.96665,15.96665,0,0,1,0,19.12729V1.71087H6.36071V19.12729a8.0439,8.0439,0,0,0,1.99648,5.7029,6.8729,6.8729,0,0,0,5.28647,2.14941,6.73622,6.73622,0,0,0,5.24224-2.14941,8.15882,8.15882,0,0,0,1.95226-5.7029V1.71087h6.36071Z"/>
        <path class="cls-1" d="M32.28726,1.71087h6.05391L53.60726,21.58349V1.71087h5.96639V32.419H53.95827L38.297,11.88856V32.419H32.28726Z"/>
        <path class="cls-1" d="M65.1448,32.419V1.71087h6.36072V32.419Z"/>
        <path class="cls-1" d="M79.5771,25.70727A3.59381,3.59381,0,0,1,83.17389,29.305a3.41564,3.41564,0,0,1-1.05214,2.50043,3.47007,3.47007,0,0,1-2.54465,1.05214A3.59461,3.59461,0,0,1,76.02361,29.305a3.46736,3.46736,0,0,1,1.05306-2.54465A3.41506,3.41506,0,0,1,79.5771,25.70727Z"/>
        <path d="M95.62912,32.81424a9.02491,9.02491,0,0,1-6.0097-1.95225A6.30279,6.30279,0,0,1,87.294,25.7948a5.97067,5.97067,0,0,1,2.50043-5.08839,11.3982,11.3982,0,0,1,6.8877-1.84262,18.18385,18.18385,0,0,1,5.57115.87709V18.11753a3.637,3.637,0,0,0-1.2281-2.98227,5.55416,5.55416,0,0,0-3.59771-1.00976,11.976,11.976,0,0,0-3.13613.46066,26.79114,26.79114,0,0,0-3.8391,1.42618l-2.19363-4.43057a28.87222,28.87222,0,0,1,5.19894-1.84262,21.00714,21.00714,0,0,1,4.97875-.61451q4.60609,0,7.17331,2.21575a7.81268,7.81268,0,0,1,2.56585,6.25107V32.419h-5.92218V30.83988a10.7114,10.7114,0,0,1-3.0486,1.4916A12.38314,12.38314,0,0,1,95.62912,32.81424Zm-2.588-7.15119a2.38792,2.38792,0,0,0,1.14058,2.084,5.33044,5.33044,0,0,0,3.0265.76745,9.55993,9.55993,0,0,0,2.74181-.37221,8.51191,8.51191,0,0,0,2.30327-1.07517V23.64538a10.92039,10.92039,0,0,0-2.30327-.6357,15.59314,15.59314,0,0,0-2.52254-.19808,5.81347,5.81347,0,0,0-3.22458.76837A2.37795,2.37795,0,0,0,93.04116,25.663Z"/>
        <path d="M129.80321,32.419V30.53308a9.50268,9.50268,0,0,1-3.02742,1.64454,11.01178,11.01178,0,0,1-3.465.5491,11.31751,11.31751,0,0,1-4.54113-.92131A11.85,11.85,0,0,1,115.0632,29.305a11.4586,11.4586,0,0,1-2.47832-3.72946,11.805,11.805,0,0,1-.90012-4.60654,11.57633,11.57633,0,0,1,.92131-4.60562,11.78364,11.78364,0,0,1,2.50135-3.72946,11.41628,11.41628,0,0,1,3.75065-2.47832,11.98306,11.98306,0,0,1,4.62773-.89919,11.78639,11.78639,0,0,1,3.2688.46065,11.114,11.114,0,0,1,2.96109,1.33774V1.71087L135.72538.39524V32.419Zm-12.19536-11.45a6.59082,6.59082,0,0,0,6.66751,6.62421,7.91663,7.91663,0,0,0,3.04953-.57029,6.93025,6.93025,0,0,0,2.3908-1.62242V16.49511a6.71293,6.71293,0,0,0-2.3908-1.58,8.15091,8.15091,0,0,0-3.04953-.57029,6.52032,6.52032,0,0,0-6.66751,6.62421Z"/>
        <path d="M147.92074,32.419,138.09407,9.56318h6.53668L150.90394,24.786l6.229-15.22278h6.40493L153.71117,32.419Z"/>
        <path d="M168.88973,6.84348a3.289,3.289,0,0,1-2.41291-1.00883A3.29253,3.29253,0,0,1,165.468,3.42174a3.29549,3.29549,0,0,1,1.00883-2.41291,3.39,3.39,0,0,1,4.82581,0,3.2955,3.2955,0,0,1,1.00884,2.41291,3.29254,3.29254,0,0,1-1.00884,2.41291A3.29047,3.29047,0,0,1,168.88973,6.84348Zm3.02742,2.7197V32.419h-6.01062V9.56318Z"/>
        <path d="M174.68015,29.6993l2.9832-3.992a18.16618,18.16618,0,0,0,3.817,1.95225,10.72736,10.72736,0,0,0,3.59679.63571,6.75028,6.75028,0,0,0,3.22458-.65782,1.97047,1.97047,0,0,0,1.206-1.75509,1.68583,1.68583,0,0,0-.67993-1.40315,4.73181,4.73181,0,0,0-2.17152-.74626l-4.38635-.65782a9.48546,9.48546,0,0,1-5.15472-2.19363,5.78685,5.78685,0,0,1-1.77721-4.43058,6.28744,6.28744,0,0,1,2.58888-5.26435,11.1468,11.1468,0,0,1,6.931-1.97437,16.56379,16.56379,0,0,1,4.86912.72415,17.71769,17.71769,0,0,1,4.519,2.1273l-2.89567,3.86121a18.43006,18.43006,0,0,0-3.59679-1.64546,11.29083,11.29083,0,0,0-3.466-.54818,4.89274,4.89274,0,0,0-2.61006.61359,1.85,1.85,0,0,0-.98672,1.62335,1.636,1.636,0,0,0,.72322,1.42618,5.62456,5.62456,0,0,0,2.3908.72323l4.38727.65874a9.26736,9.26736,0,0,1,5.15472,2.19271,5.7036,5.7036,0,0,1,1.82051,4.34305,6.09087,6.09087,0,0,1-.76745,3.00531,7.728,7.728,0,0,1-2.084,2.39079,9.968,9.968,0,0,1-3.15917,1.57913,13.43011,13.43011,0,0,1-3.992.57029,20.3202,20.3202,0,0,1-5.83465-.81076A13.64544,13.64544,0,0,1,174.68015,29.6993Z"/>
        <path d="M197.31578,21.0132a11.59115,11.59115,0,0,1,.94342-4.672,11.71556,11.71556,0,0,1,2.58887-3.77276,12.12515,12.12515,0,0,1,3.8824-2.52254,12.86886,12.86886,0,0,1,9.56318,0,12.13508,12.13508,0,0,1,3.88239,2.52254,11.742,11.742,0,0,1,2.588,3.77276,12.03982,12.03982,0,0,1,0,9.34391,11.47019,11.47019,0,0,1-2.588,3.75065,12.2997,12.2997,0,0,1-3.88239,2.50043,12.86886,12.86886,0,0,1-9.56318,0,12.2895,12.2895,0,0,1-3.8824-2.50043,11.44491,11.44491,0,0,1-2.58887-3.75065A11.5912,11.5912,0,0,1,197.31578,21.0132Zm12.19628,6.62421a5.95652,5.95652,0,0,0,4.47479-1.93014,6.54619,6.54619,0,0,0,1.8417-4.69407,6.60228,6.60228,0,0,0-1.8417-4.73736,6.15017,6.15017,0,0,0-8.94959,0,6.60308,6.60308,0,0,0-1.84261,4.73736,6.547,6.547,0,0,0,1.84261,4.69407A5.95372,5.95372,0,0,0,209.51206,27.63741Z"/>
        <path d="M225.39173,32.419V9.56318h6.01062v2.50043a7.26013,7.26013,0,0,1,2.65337-2.25905,7.68841,7.68841,0,0,1,3.44385-.76745,11.47627,11.47627,0,0,1,1.46949.15386A3.07084,3.07084,0,0,1,240,9.56318v5.26436a6.31,6.31,0,0,0-1.44738-.46066,8.49326,8.49326,0,0,0-1.62334-.15293,6.17418,6.17418,0,0,0-3.22458.87708,5.9995,5.9995,0,0,0-2.30235,2.54466V32.419Z"/>
      </g>

</svg>
